PathFileType	4	(X/Y/Z)	24_2_115_p1_0-543_filt_butterworth.trc
DataRate	CameraRate	NumFrames	NumMarkers	Units	OrigDataRate	OrigDataStartFrame	OrigNumFrames
52.0	52.0	5	27	m	52.0	135	543
Frame#	Time	RHip			RKnee			RAnkle			RBigToe			RSmallToe			RHeel			LHip			LKnee			LAnkle			LBigToe			LSmallToe			LHeel			Neck			Head			Nose			RShoulder			RElbow			RWrist			RThumb			RIndex			RPinky			LShoulder			LElbow			LWrist			LThumb			LIndex			LPinky			
		X1	Y1	Z1	X2	Y2	Z2	X3	Y3	Z3	X4	Y4	Z4	X5	Y5	Z5	X6	Y6	Z6	X7	Y7	Z7	X8	Y8	Z8	X9	Y9	Z9	X10	Y10	Z10	X11	Y11	Z11	X12	Y12	Z12	X13	Y13	Z13	X14	Y14	Z14	X15	Y15	Z15	X16	Y16	Z16	X17	Y17	Z17	X18	Y18	Z18	X19	Y19	Z19	X20	Y20	Z20	X21	Y21	Z21	X22	Y22	Z22	X23	Y23	Z23	X24	Y24	Z24	X25	Y25	Z25	X26	Y26	Z26	X27	Y27	Z27	
135	2.5961538461538463	0.4189747871210928	0.9488987266294766	0.6844783061951016	0.42494891314789046	0.47323835014586124	0.6978767829624691	0.3896514809264073	-0.019174768110077345	0.7672938474377495	0.40232674076110797	-0.00685179411684924	0.5492798416045249	0.4515171254380369	-0.00013925277728329966	0.5706076739754382	0.3721886752800109	-0.07892340325940489	0.7986672593732891	0.2063525410508366	0.9487119042088838	0.664926388861561	0.20282557019652134	0.47413642147061785	0.6806578551749181	0.2055448417197027	0.019285745595445353	0.6847322478709545	0.24051233210250256	0.010567363055354967	0.5166251780077032	0.18381070452099807	0.0007980751556208171	0.5551333299785768	0.21291132625718617	-0.05674608050930805	0.7593906709223639	0.32450406401740206	1.466950352765304	0.6836051533071447	0.33264729677202887	1.7035456312360457	0.6235653046141362	0.3458143910147081	1.5839400435260842	0.5751809507544603	0.47749724790986403	1.4416106423762982	0.6956744306493783	0.5892498554269379	1.6348050278369515	0.6526439639383042	0.5594814883853034	1.8426204080599227	0.6061662323065499	0.43443610907201113	1.8701317339926053	0.6017509882625867	0.43752915574435497	1.8948835041181236	0.5959601423293751	0.5073917719374241	1.8863779796211984	0.5997939498180793	0.1885249110691321	1.4330979512346673	0.6677146396247811	0.08547302972966292	1.6399041811753596	0.5806164880539131	0.1290252252132617	1.832929550620923	0.5427958322943078	0.24074732325714016	1.871422744261047	0.5573212301197576	0.23418331668533318	1.9039155172334818	0.5512024753769774	0.17441297919843618	1.8993473152508191	0.5258991219424679	
136	2.6153846153846154	0.41892621493567167	0.9498716099668343	0.6844265564563047	0.4248717432004306	0.47385527317116655	0.6976009153659253	0.38906617459322046	-0.02005177260961226	0.768735169873024	0.40237714762720334	-0.006889937140320629	0.549534215233949	0.45192307284685596	-0.0008000689397725108	0.5720672328459652	0.3718056319665187	-0.0788109017083385	0.7984580136470261	0.20629781399251093	0.9494755584254899	0.6649050872760311	0.20275583555119855	0.4747821285300241	0.6805791039890933	0.20549630617733186	0.019659629826110844	0.6845898307803416	0.24048523124831744	0.010503944598841006	0.5167659513243504	0.1838206575440729	0.0008529084639800483	0.5551175384290853	0.2123028857391293	-0.05736773310678602	0.7604798032223192	0.3244471215472804	1.467475443011463	0.6839060952075982	0.33194020555630943	1.7048036718159478	0.6260905789961733	0.34542064979558096	1.5850563563302762	0.5725606287918021	0.47615673344635967	1.4445993274659747	0.6956490599932013	0.5819236751772132	1.643379989963003	0.6460947332367375	0.5668894379709984	1.8495828462551644	0.6031413245333532	0.4489420531209589	1.8896854689407958	0.5832966156950712	0.4500923068825585	1.9105402498181816	0.5799056765734377	0.5153966642789005	1.9036666595777063	0.5907516104907887	0.18981205144580515	1.4343239479246594	0.6657944927120847	0.09320831273105162	1.6453749845036874	0.5875692544318442	0.12484237879162416	1.8385352091280305	0.5398897110786094	0.23358916903403923	1.8885274569561024	0.5498024463899507	0.22558291917042722	1.9141237354861953	0.5381408914587417	0.16822296808982695	1.9090322699944093	0.5196712434414965	
137	2.6346153846153846	0.4188660749341531	0.950798069527436	0.6844008605406008	0.42479402504758357	0.47431459514064134	0.6973325517934771	0.3884254280971373	-0.021008083269520306	0.7703331451678166	0.40207751108163753	-0.006916583799528163	0.5495587052977136	0.45225917782527714	-0.0016191991012627638	0.5747143585984228	0.37145261776741395	-0.07864305609363476	0.798308987648976	0.206246410609213	0.950215888925434	0.6648788781914303	0.20267885848408326	0.47548080845952384	0.680505978228685	0.20544981075036683	0.01997262779647757	0.6844681967513283	0.2404537236377137	0.010422359824726127	0.5169541261635943	0.18382450377216178	0.000933221409257376	0.5550914262765131	0.21169191069726304	-0.05805659170414467	0.7618140210325233	0.32408805947392444	1.4674503606585547	0.6849678727803141	0.3312275902555737	1.705501973718922	0.6270499473413347	0.34501023719811563	1.586278449957598	0.5701315313966498	0.4741650961173643	1.446819869817091	0.696492506992934	0.575695603748093	1.650967978768849	0.6374358552155985	0.5733879153529924	1.8532227196376052	0.5973817788070225	0.4620423157039686	1.9043777443925665	0.5649228038263345	0.461862087337367	1.9214237022489375	0.5657859818514932	0.520329478743729	1.915778753598001	0.5839670139932024	0.1904498265115822	1.4351087671117781	0.664510865123509	0.1003277887416408	1.6474721372307923	0.590551739926665	0.12138354131238034	1.8404741652762922	0.535267370133925	0.22758733831129402	1.9003708231856458	0.5384567756268154	0.21826605897205503	1.919922501373846	0.5226215895487031	0.16217227231719608	1.9144001323010178	0.513513770440339	
138	2.6538461538461537	0.4187991473804569	0.9515994510979419	0.6843857411936746	0.42470911422992036	0.47469615520448566	0.6970833627175606	0.38783369689669217	-0.021876847382120382	0.7718322260719663	0.4014996228996509	-0.00676729689547801	0.5493560898923506	0.4527536205857656	-0.0027488411087058517	0.5783003029313707	0.37113872661523095	-0.07842430100452306	0.7982291274290799	0.20619872304761167	0.9509152135763368	0.6648495511708981	0.20259349625426595	0.47624392228520773	0.6804511853389638	0.20540838277195045	0.020215967776881907	0.6843696324095819	0.2404257393052956	0.010353449973550172	0.5171274339860338	0.18382543351426145	0.0010171839042786845	0.5550559523881009	0.2111167580870847	-0.05892126680207314	0.7635518337369928	0.3233957962268792	1.4670028209963109	0.6867837953440632	0.33085758964797113	1.7056047500060736	0.626643552531185	0.344614514232848	1.5873911872267916	0.5681679297913503	0.4717790609867068	1.4480376150499692	0.698240819500836	0.5703765961833729	1.6569561574843557	0.628917593488358	0.5785442588220816	1.854816078555593	0.5892782301105499	0.4731694954199369	1.9141721321136098	0.5487191329611409	0.47264578419435205	1.9275263354799792	0.552945839060198	0.5224987806286961	1.922748492348635	0.5788265453602784	0.19049821861463623	1.4356327491487701	0.6640581677027481	0.10672594838161037	1.646368056370496	0.5887332133562246	0.11865121945484133	1.8401718226401471	0.5294799692702274	0.22306535191876475	1.9071454402122106	0.5245498963061472	0.21262607904192848	1.9218029922940232	0.5070648220767143	0.15649953435479136	1.9160140634584564	0.5057224585415105	
139	2.673076923076923	0.41873412257056325	0.952258709418977	0.684370037602579	0.4246235322072594	0.4750611215113454	0.6968566554507128	0.3873884733386583	-0.022499604321876046	0.77298676307248	0.40084033182793416	-0.006270415813349549	0.5490187918769946	0.45332509112669256	-0.003960656448327354	0.5820770929496882	0.3708736693322907	-0.07816387156821228	0.7982178826715237	0.20615482239532343	0.9515576217731021	0.6648203906729022	0.2024992540505876	0.4770638668207766	0.680425682235021	0.20537557333611905	0.02037693239319724	0.6842974880661525	0.24040384952844696	0.010317827360128262	0.517244128475637	0.18382297416662807	0.001100945990584537	0.5550174937512027	0.21059606622236512	-0.05994166396727584	0.7656405610561651	0.3224615054503248	1.4664315717316576	0.6891136267328697	0.330936807268	1.7051361388479982	0.6259780270704671	0.34437883336658237	1.5882567451235536	0.5669112363357964	0.4693791140104707	1.4483586033580624	0.7006811232337649	0.5658272618328908	1.660841906350365	0.6224980697349078	0.582454022047652	1.8559424086590814	0.5794423166750213	0.48244100203584606	1.9196095096130223	0.5355116335619752	0.48285908079297934	1.9295009278643487	0.539754332374154	0.5231386212940963	1.9258615500450178	0.5734075417362723	0.1902805480498553	1.4359207457260084	0.6642216863779375	0.11234380235291594	1.6435331145028622	0.5835765248467492	0.11682831497484694	1.8393020732053365	0.5235203198124153	0.2200049843954348	1.9100627938790091	0.5107765948476889	0.2085568470813513	1.9216029229738008	0.4935593219129032	0.15209869777512663	1.9154393807233356	0.4961047557572252	
